<svg width="313" height="174" viewBox="0 0 313 174" fill="none" xmlns="http://www.w3.org/2000/svg">
<rect width="312.212" height="174" rx="12" fill="white"/>
<path d="M227.21 37.3668C224.96 38.617 222.209 39.6172 220.209 41.1175C211.457 47.6185 203.956 55.3698 196.955 63.6212C194.455 66.6217 192.204 69.8722 189.204 72.3727C177.702 81.8743 166.2 91.1258 154.448 100.377C153.698 101.127 152.698 101.628 151.697 101.878C150.947 102.128 149.697 102.128 149.197 101.628C148.697 100.877 148.447 99.3772 148.947 98.8771C149.947 97.1268 151.197 95.3765 152.698 93.8763C154.448 92.126 156.198 90.6257 157.948 88.8754C158.449 88.3753 158.449 87.1251 158.949 85.8749C155.448 86.625 153.948 88.6254 152.197 90.3757C147.947 94.6264 142.446 96.1266 136.945 97.6269C135.945 97.8769 133.944 97.3768 133.444 96.6267C132.944 95.8766 133.444 94.1263 133.944 92.8761C134.445 91.8759 135.195 91.3758 135.945 90.6257C136.945 89.6255 138.195 88.6254 138.945 87.3752C139.195 86.8751 138.695 86.125 138.445 84.8747C137.195 86.125 136.195 86.8751 135.445 87.6252C130.194 92.376 124.193 95.6265 117.942 98.127C114.941 99.3772 113.441 98.377 113.941 95.6265C114.691 91.1258 117.942 88.1253 120.692 84.6247C122.443 82.3743 124.693 83.1245 126.943 82.8744C127.443 82.8744 128.193 82.8744 128.694 82.6244C129.444 82.1243 130.944 81.1241 130.694 80.8741C130.444 79.8739 129.444 78.3737 128.694 78.3737C126.943 78.3737 124.943 78.6237 123.693 79.3738C119.442 82.3743 114.941 81.3742 110.19 81.6242C110.691 80.124 110.941 79.1238 111.441 78.1236C113.691 73.1228 115.941 67.8719 118.192 62.8711C121.192 56.37 124.693 50.369 129.194 44.8681C130.944 42.8677 131.944 40.3673 132.194 37.8669C131.444 37.6169 131.194 37.6169 130.944 37.6169C119.692 41.6175 108.19 45.3682 96.9382 49.6189C91.9374 51.6192 87.1866 54.1196 82.4358 56.62C77.9351 59.1205 74.4345 62.621 72.1841 67.1218C69.6837 71.8726 72.4342 76.1233 77.685 76.1233C78.4352 76.1233 79.1853 76.1233 79.9354 75.8732C91.6874 73.8729 99.4387 66.6217 105.44 57.1201C106.44 55.3698 108.19 53.1195 105.69 51.6192C103.439 50.119 102.189 52.8694 100.189 54.6197C102.189 54.1196 103.189 54.1196 104.69 53.6195C100.439 63.6212 93.1876 69.6222 83.686 73.3728C81.9357 74.123 79.9354 74.123 77.9351 74.123C74.6845 74.123 73.1843 72.1226 74.1844 69.1221C74.4345 68.122 74.9346 67.1218 75.6847 66.3717C79.4353 60.6207 85.1863 57.1201 91.1873 54.6197C102.189 50.119 113.441 46.3683 124.443 42.3677C125.693 41.8676 126.943 41.8676 128.694 41.3675C128.193 42.3677 127.943 43.1178 127.693 43.6179C119.942 54.6197 113.941 66.8717 109.44 79.6239C108.69 81.8743 107.19 82.6244 104.69 83.1245C95.438 84.3747 86.6865 86.8751 79.4353 92.8761C77.1849 94.8764 74.9346 97.3768 73.4343 100.127C71.1839 104.128 72.6842 107.629 77.1849 108.879C82.1858 110.379 87.1866 109.879 91.4373 106.378C88.6869 106.878 86.1864 107.629 83.436 107.879C81.6857 108.129 79.4353 107.879 77.685 107.128C74.4345 106.128 73.6844 103.628 74.9346 100.627C75.9347 98.8771 77.1849 96.8768 78.6852 95.6265C86.4365 88.8754 95.9381 85.8749 106.94 84.6247C105.19 89.1255 103.439 92.8761 101.939 96.6267C103.939 93.3762 105.69 89.8756 107.69 86.625C108.44 85.6249 109.44 84.3747 110.44 84.1246C112.941 83.6245 115.441 83.6245 118.692 83.1245C117.442 84.8748 116.441 85.6249 115.941 86.625C114.441 89.6255 112.441 92.376 111.691 95.3765C110.691 99.3772 113.441 101.628 117.442 100.627C118.692 100.377 119.942 99.6272 121.192 99.1271C123.943 97.6269 126.693 96.1266 129.444 94.6264C131.194 99.6272 132.694 100.627 137.445 99.8773C138.945 99.6272 140.696 98.8771 142.196 98.377C143.446 97.8769 144.446 97.3768 145.696 96.8768C146.447 99.6272 147.197 102.128 147.947 104.628C143.196 108.879 137.945 113.129 133.194 117.63C129.944 120.881 126.943 124.381 124.193 128.132C122.693 130.382 122.943 133.133 124.693 135.383C126.193 137.384 128.444 137.884 131.694 136.883C135.945 135.383 139.445 132.883 142.196 129.382C145.196 125.632 147.697 121.631 150.697 117.88C155.698 111.129 160.449 104.628 165.45 98.127C166.7 96.3767 168.45 94.8764 170.701 94.1263C169.95 95.6265 168.95 97.1268 167.95 98.377C163.449 104.128 158.699 109.879 154.198 115.63C152.948 117.38 151.947 119.381 150.947 121.131C154.698 122.881 154.698 123.131 157.198 121.631C161.949 119.13 166.7 116.38 171.201 113.63C175.701 110.879 179.952 108.129 184.453 105.378C186.453 109.629 188.454 110.379 192.454 109.129C194.455 108.379 196.205 107.629 198.205 106.628C200.205 105.628 201.956 104.628 204.706 103.378C204.456 104.878 204.456 105.378 204.206 105.878C203.456 109.629 205.206 111.379 208.957 110.379C210.207 110.129 211.457 109.629 212.708 108.879C218.459 105.628 224.209 102.378 229.96 99.1271C232.711 97.6269 235.211 95.6265 238.712 95.8766C238.712 97.1268 238.462 98.127 238.712 99.1271C238.712 99.3772 240.212 99.3772 240.962 99.6272C240.962 98.127 240.962 96.3767 240.462 94.8764C240.212 94.1263 238.462 93.6262 237.462 93.8763C234.711 94.6264 231.961 95.6265 229.71 97.1268C224.71 99.8773 219.959 102.878 214.958 105.628C212.458 107.128 209.957 108.629 206.206 108.379C207.207 106.378 208.207 104.878 208.707 103.378C209.457 101.878 212.207 101.127 210.957 98.377C203.456 101.378 196.955 107.128 188.203 107.879C188.704 103.128 193.954 102.128 195.205 97.1268C180.952 105.128 168.95 114.88 154.198 120.631C154.948 118.88 155.698 117.63 156.698 116.38C164.45 106.878 171.951 97.1268 179.952 87.6252C184.703 81.8743 189.454 76.1233 194.955 70.8724C202.706 63.3712 211.207 56.62 219.459 49.6189C220.459 48.8687 221.459 47.8686 222.709 47.3685C224.71 46.8684 225.96 45.6182 227.21 43.8679C228.71 41.6175 230.461 39.3672 231.961 36.8667C230.961 36.6167 229.96 36.6167 228.96 36.6167C228.21 36.8667 227.71 37.1168 227.21 37.3668ZM128.193 80.624C128.193 80.8741 128.444 81.1241 128.444 81.3742C127.693 81.6242 126.943 81.8743 126.193 82.1243C126.193 81.8743 125.943 81.6242 125.943 81.3742C126.693 80.8741 127.443 80.624 128.193 80.624ZM142.196 127.382C139.945 130.632 136.695 132.883 133.194 134.633C132.444 134.883 131.694 135.383 131.194 135.383C129.694 135.383 127.693 135.383 126.693 134.383C124.943 133.133 125.443 131.132 126.443 129.382C127.193 127.882 128.193 126.132 129.444 124.881C136.445 118.38 143.196 112.129 150.447 105.878C152.698 104.128 155.698 103.128 158.198 101.878C158.449 102.128 158.699 102.378 158.699 102.378C153.198 111.129 147.697 119.381 142.196 127.382ZM176.452 88.1253C176.201 87.8753 175.701 87.6252 175.451 87.3752C176.201 86.625 176.702 85.8749 177.452 85.1248C177.702 85.3748 177.952 85.3748 178.202 85.6249C177.452 86.375 176.952 87.1251 176.452 88.1253ZM204.706 59.1205C210.457 51.6192 217.458 45.8682 225.21 40.6174C219.209 47.8686 211.957 53.3695 204.706 59.1205Z" fill="#0B2034"/>
</svg>
